<?xml version="1.0" standalone="no"?>
<!DOCTYPE svg PUBLIC "-//W3C//DTD SVG 20010904//EN"
 "http://www.w3.org/TR/2001/REC-SVG-20010904/DTD/svg10.dtd">
<svg version="1.0" xmlns="http://www.w3.org/2000/svg"
 width="562.000000pt" height="562.000000pt" viewBox="0 0 562.000000 562.000000"
 preserveAspectRatio="xMidYMid meet">

<g transform="translate(0.000000,562.000000) scale(0.100000,-0.100000)"
fill="#ffffff" stroke="none">
<path d="M2675 4505 c-20 -14 -41 -22 -47 -19 -5 4 -20 2 -31 -4 -49 -22 -79
-32 -97 -32 -22 0 -167 -67 -175 -81 -4 -5 -12 -9 -20 -9 -15 0 -92 -53 -154
-105 -20 -17 -48 -39 -64 -48 -15 -10 -39 -37 -54 -60 -14 -23 -48 -73 -73
-112 -89 -133 -143 -237 -132 -255 7 -12 4 -23 -14 -45 -13 -17 -24 -41 -24
-55 0 -14 -4 -40 -9 -58 -7 -24 -6 -40 5 -60 18 -35 19 -178 1 -212 -20 -39
-26 -69 -14 -73 6 -2 -6 -13 -26 -24 -26 -16 -39 -32 -46 -60 -15 -54 -14
-142 4 -199 8 -27 15 -66 15 -86 0 -27 4 -36 14 -32 9 4 15 -7 19 -36 3 -22
17 -56 31 -75 14 -18 26 -37 26 -41 0 -13 -31 20 -46 49 -22 42 -26 28 -9 -29
8 -27 21 -88 29 -136 12 -69 23 -99 52 -143 47 -70 73 -74 102 -12 15 29 21
36 22 21 0 -11 -4 -24 -8 -30 -9 -10 -32 -84 -32 -103 0 -24 21 -9 26 19 4 16
13 35 20 41 8 6 15 26 15 43 1 26 2 27 6 7 7 -34 -26 -131 -43 -131 -9 0 -14
-12 -14 -34 0 -39 14 -53 35 -36 21 18 19 41 -2 33 -16 -6 -16 -5 -5 10 11 12
17 13 26 4 17 -15 9 -43 -20 -66 -23 -18 -23 -19 -6 -60 12 -28 23 -41 37 -41
14 0 16 -3 7 -9 -22 -13 -4 -60 26 -68 24 -6 24 -7 7 -19 -18 -13 -18 -14 -1
-14 13 0 16 -5 12 -17 -4 -10 1 -23 14 -35 20 -19 21 -19 50 2 35 25 41 47 8
29 -18 -10 -20 -9 -14 6 3 9 3 22 0 27 -11 18 -14 79 -5 97 15 28 22 71 12 71
-5 0 -17 -18 -27 -40 -10 -21 -21 -37 -26 -34 -5 3 0 18 11 32 10 15 21 36 23
47 1 11 10 26 20 32 11 9 16 27 16 58 -1 24 -5 42 -10 39 -4 -3 -8 0 -8 7 0
10 -3 10 -12 1 -25 -25 -26 -11 -2 34 13 25 24 58 24 75 0 27 -2 29 -30 24
-25 -4 -30 -2 -30 15 0 11 -5 20 -11 20 -6 0 -8 12 -5 33 3 17 3 26 0 19 -8
-18 -34 4 -34 29 0 11 -3 19 -8 19 -14 0 -36 65 -36 105 0 22 -3 42 -6 45 -4
3 -10 17 -14 32 -5 22 -3 26 9 22 17 -7 19 4 6 25 -11 17 17 104 30 95 14 -8
51 -85 58 -118 7 -30 35 -56 48 -43 4 4 -7 34 -25 66 -18 32 -32 69 -32 83 0
13 -7 33 -15 44 -17 22 -20 97 -5 125 6 11 12 36 14 56 1 20 8 39 14 41 7 2
12 14 12 27 0 13 5 27 10 30 13 8 13 85 0 85 -13 0 -43 -47 -37 -58 3 -4 2
-14 -3 -22 -7 -12 -12 -12 -21 -3 -9 9 -9 19 1 42 7 17 16 31 20 31 5 0 17 16
29 35 16 28 18 40 10 62 -5 15 -8 38 -4 50 3 13 2 23 -3 23 -21 0 2 288 24
297 8 3 14 16 14 30 0 14 8 37 19 51 10 15 22 41 25 58 8 35 44 78 94 113 24
17 32 19 32 8 0 -8 7 -18 16 -21 11 -4 19 3 27 24 14 37 18 37 40 3 l18 -28
-5 27 c-3 15 -2 30 4 33 6 3 10 -4 11 -17 0 -13 3 -17 6 -10 2 6 9 10 13 7 5
-3 7 -12 3 -20 -4 -11 -1 -13 12 -9 14 6 16 3 10 -15 -6 -20 -4 -22 13 -17 12
4 26 0 36 -10 10 -9 19 -14 23 -11 3 3 15 2 28 -3 19 -7 22 -6 18 10 -4 16 0
18 26 15 20 -3 31 0 31 8 0 7 4 6 10 -3 6 -9 13 -11 18 -5 9 13 42 16 42 4 0
-23 19 -5 25 23 7 30 8 31 21 13 8 -10 14 -15 14 -10 0 5 14 -4 30 -20 17 -16
30 -25 30 -19 1 5 10 -2 22 -16 14 -16 19 -19 15 -7 -13 36 30 -2 83 -73 51
-68 75 -87 50 -38 -11 20 -9 19 20 -7 22 -20 31 -24 27 -12 -5 13 -1 17 14 17
17 0 20 5 16 21 -4 15 -2 19 10 15 8 -3 18 -6 23 -6 4 0 10 -13 14 -30 6 -35
26 -40 26 -7 0 19 2 18 20 -11 11 -18 25 -30 30 -27 6 4 8 11 5 16 -4 5 -2 9
3 9 5 0 12 -23 16 -50 4 -28 11 -48 16 -45 13 8 17 -26 6 -62 -6 -23 -6 -41 2
-58 16 -34 15 -45 -3 -45 -8 0 -15 -8 -15 -18 0 -11 -20 -33 -45 -51 -44 -32
-53 -52 -36 -80 8 -12 11 -9 16 12 4 15 11 24 16 21 5 -3 9 5 9 18 0 21 2 20
19 -9 11 -17 29 -34 40 -38 11 -3 23 -15 26 -26 4 -12 13 -18 20 -15 7 2 16
-2 19 -11 4 -10 2 -13 -8 -10 -9 4 -16 -3 -20 -19 -4 -14 -11 -22 -16 -19 -6
4 -7 12 -3 18 4 7 0 6 -10 -2 -26 -20 -21 -39 8 -33 14 2 25 11 25 19 0 10 6
13 16 9 9 -3 19 -6 22 -6 4 0 0 -5 -8 -10 -13 -8 -12 -10 3 -10 23 0 45 -46
29 -62 -8 -8 -7 -15 6 -25 16 -13 15 -14 -5 -10 -19 4 -23 1 -23 -19 0 -24 19
-28 48 -11 7 5 12 3 12 -5 0 -7 9 -19 21 -26 20 -13 19 -14 -25 -48 -38 -28
-56 -35 -108 -39 -35 -3 -64 -10 -66 -15 -2 -6 -20 -10 -40 -10 -22 0 -59 -13
-91 -30 -30 -17 -71 -35 -92 -40 -41 -11 -48 -28 -43 -97 3 -39 1 -42 -23 -45
-38 -4 -39 -24 -2 -32 30 -6 31 -8 26 -43 -3 -21 -8 -84 -11 -140 -3 -82 -2
-103 9 -103 24 0 27 -19 10 -64 -13 -34 -14 -51 -6 -82 19 -71 -17 -154 -67
-154 -21 0 -22 -2 -12 -15 11 -13 8 -15 -18 -15 -17 0 -33 -6 -36 -12 -4 -9
-5 -8 -5 2 3 36 -2 41 -28 38 -23 -2 -29 -8 -31 -35 -2 -22 3 -38 17 -52 12
-12 20 -21 19 -22 -2 0 -14 -2 -27 -3 -14 -2 -27 -8 -29 -14 -2 -8 -7 -8 -17
1 -9 8 -10 16 -3 25 15 17 2 28 -16 13 -8 -7 -18 -38 -22 -69 -5 -43 -9 -52
-15 -37 -7 18 -8 18 -8 2 -1 -10 -7 -17 -13 -14 -8 2 -12 18 -10 41 3 40 -13
49 -24 14 -7 -22 -7 -22 -14 -3 -7 18 -8 18 -15 -7 -4 -14 -16 -35 -27 -45
-21 -18 -21 -18 -8 7 7 14 21 37 31 52 21 29 25 68 8 68 -6 0 -13 -9 -16 -20
-3 -13 -14 -20 -29 -20 -13 0 -24 -4 -24 -9 0 -4 -10 -21 -21 -35 -15 -20 -24
-24 -29 -16 -11 18 -30 3 -30 -24 0 -12 -5 -27 -12 -34 -7 -7 -8 -12 -2 -12 5
0 15 9 22 20 7 11 18 20 24 20 9 0 9 -3 0 -12 -7 -7 -12 -24 -12 -39 0 -15 -7
-35 -16 -44 -9 -9 -16 -27 -16 -40 0 -13 -9 -32 -19 -41 -17 -15 -17 -14 -12
6 5 21 3 22 -25 18 -32 -5 -36 -1 -33 37 1 14 -5 21 -19 22 -11 1 -20 -4 -20
-11 0 -14 -44 -41 -67 -41 -9 0 -22 -10 -30 -23 -15 -21 -14 -22 8 -23 l24 0
-25 -11 c-21 -9 -22 -12 -7 -15 12 -3 16 -11 12 -23 -4 -12 0 -20 12 -23 14
-4 12 -5 -5 -6 -17 -1 -22 -5 -18 -18 31 -100 41 -307 17 -337 -17 -20 -91
-63 -123 -71 -15 -4 -44 -22 -66 -40 -21 -19 -61 -42 -89 -53 -27 -10 -70 -32
-94 -49 -24 -16 -74 -42 -112 -58 -37 -15 -71 -33 -77 -40 -20 -24 243 -161
441 -230 95 -33 246 -73 343 -90 34 -6 38 -4 32 11 -8 21 20 112 43 138 9 10
31 25 49 33 37 16 36 11 17 56 -30 71 -14 143 41 186 48 38 72 29 157 -59 43
-44 83 -80 89 -80 12 0 -27 46 -138 162 -55 56 -84 95 -84 109 0 34 48 96 82
108 73 26 124 4 263 -113 38 -32 87 -70 108 -84 20 -13 37 -31 37 -38 0 -8 15
-21 33 -30 28 -14 33 -20 29 -45 -3 -17 0 -29 7 -29 6 0 11 -6 11 -13 0 -8
-19 3 -42 25 -23 21 -47 38 -55 38 -17 0 -17 -2 9 -46 20 -33 20 -37 5 -46 -9
-5 -17 -18 -17 -28 0 -10 -4 -21 -9 -25 -14 -8 -41 -65 -41 -87 0 -11 -4 -17
-10 -13 -15 9 -52 -35 -47 -55 3 -11 -1 -21 -10 -24 -21 -8 -23 -8 -23 10 0 8
5 12 11 8 8 -4 9 1 4 17 -8 25 -22 39 -40 39 -5 0 -24 14 -42 30 -18 17 -41
30 -52 30 -26 0 -26 1 5 -57 25 -47 25 -48 5 -51 -12 -2 -22 -11 -22 -20 -1
-9 -3 -32 -5 -49 l-4 -33 55 0 c76 0 273 27 380 52 228 53 492 167 686 297
157 105 399 318 399 352 0 4 -39 17 -86 30 -47 12 -110 37 -140 55 -51 31
-128 54 -179 54 -54 0 -214 140 -250 218 -30 66 -31 82 -5 149 25 66 57 226
65 328 9 104 12 114 41 125 14 6 27 18 31 27 3 10 16 41 28 68 26 58 79 351
70 387 -3 13 4 62 16 108 16 62 20 102 17 152 -7 85 -24 108 -82 108 -23 0
-36 4 -30 8 16 10 27 49 15 56 -5 3 -12 23 -15 44 -9 55 -20 241 -18 291 2 34
-4 54 -28 91 -16 26 -30 51 -30 56 0 6 -20 40 -44 77 -25 37 -48 81 -51 97 -4
17 -12 33 -19 37 -6 5 -23 30 -36 57 -44 88 -257 284 -372 342 -104 52 -319
119 -393 122 -11 0 -39 3 -62 6 -33 4 -48 1 -78 -19z m-685 -1132 c0 -20 -3
-33 -7 -29 -9 9 -14 38 -8 54 8 23 15 12 15 -25z m51 -4 c-12 -13 -21 -27 -21
-33 0 -5 -3 -7 -6 -3 -3 3 4 20 16 37 12 17 24 29 27 26 3 -2 -4 -15 -16 -27z
m-64 -61 c-3 -8 -6 -5 -6 6 -1 11 2 17 5 13 3 -3 4 -12 1 -19z m0 -60 c-3 -8
-6 -5 -6 6 -1 11 2 17 5 13 3 -3 4 -12 1 -19z m-166 -161 c-12 -12 -31 0 -31
19 0 12 3 12 20 2 11 -7 16 -16 11 -21z m37 -54 c26 -23 39 -63 20 -63 -12 0
-56 41 -72 68 -11 19 28 15 52 -5z m1365 -30 c-7 -2 -19 -2 -25 0 -7 3 -2 5
12 5 14 0 19 -2 13 -5z m110 0 c-7 -2 -21 -2 -30 0 -10 3 -4 5 12 5 17 0 24
-2 18 -5z m90 -33 c26 -16 47 -32 47 -35 0 -4 -13 3 -29 15 -16 11 -45 27 -63
35 -18 8 -26 14 -17 15 8 0 36 -13 62 -30z m-247 -105 c18 -19 40 -35 49 -35
9 0 19 -9 22 -19 5 -21 61 -36 94 -26 18 6 20 3 17 -25 -3 -21 -12 -36 -27
-45 -23 -12 -22 -12 15 -18 25 -4 48 -1 67 8 16 8 33 12 38 9 5 -3 9 3 9 13 0
16 1 16 17 0 9 -9 17 -32 17 -51 0 -28 3 -33 13 -24 7 6 13 16 13 24 0 7 5 16
11 19 14 9 -15 -59 -41 -95 -26 -37 -64 -64 -121 -86 -57 -22 -55 -20 -34 -44
12 -13 14 -20 6 -20 -9 0 -11 -9 -6 -30 7 -33 -3 -55 -25 -55 -8 0 -16 -10
-18 -22 -2 -12 -11 -24 -20 -26 -10 -3 -5 -5 11 -6 29 -1 37 -18 11 -28 -39
-15 -109 55 -88 89 4 5 1 14 -7 18 -10 7 -11 14 -2 32 18 36 25 68 16 68 -17
0 -33 -24 -33 -51 0 -38 -14 -44 -17 -8 -1 15 2 31 7 34 20 12 9 33 -22 44
-20 7 -28 15 -22 19 14 9 24 72 12 72 -5 0 -4 9 2 20 7 14 8 26 0 39 -15 29
-13 46 4 32 10 -9 15 -8 19 3 3 7 -9 28 -29 47 -36 35 -44 59 -19 59 8 0 15 7
15 16 0 11 6 15 20 11 27 -7 25 5 -5 33 -13 12 -22 27 -19 31 8 14 15 11 50
-26z m-1290 -7 c-3 -13 -3 -17 0 -10 3 6 11 12 18 12 8 0 11 -13 9 -41 -2 -23
1 -47 6 -53 6 -7 5 -20 -3 -35 -13 -23 -14 -22 -20 22 -4 26 -11 49 -17 52
-10 7 -12 58 -2 68 12 12 14 7 9 -15z m1618 -87 c3 -5 -1 -14 -9 -21 -13 -10
-15 -9 -15 9 0 21 14 28 24 12z m-1632 -89 c2 -17 8 -26 17 -24 11 2 13 -7 8
-45 l-5 -48 24 30 c13 17 24 25 24 20 0 -6 -5 -16 -12 -23 -7 -7 -13 -44 -14
-85 -1 -39 -2 -75 -3 -79 -2 -14 -21 -8 -21 6 0 7 -6 19 -14 25 -8 7 -17 27
-20 46 -4 19 -12 35 -18 35 -5 0 -7 7 -4 16 3 8 -1 26 -9 38 -12 17 -13 30 -6
47 5 13 12 36 15 51 8 35 34 27 38 -10z m195 -437 c-13 -26 -16 -40 -8 -43 18
-6 13 -26 -10 -40 -26 -16 -31 -12 -36 32 -2 26 2 38 17 49 11 7 25 29 32 47
10 29 12 31 18 14 5 -11 0 -34 -13 -59z m1203 -50 c13 -14 21 -25 18 -25 -2 0
-15 11 -28 25 -13 14 -21 25 -18 25 2 0 15 -11 28 -25z m56 -221 c-4 -9 -9
-15 -11 -12 -3 3 -3 13 1 22 4 9 9 15 11 12 3 -3 3 -13 -1 -22z m-385 -36 c13
-16 18 -18 22 -7 4 10 6 9 6 -3 1 -13 9 -18 31 -18 33 0 36 -7 19 -44 -11 -23
-14 -24 -33 -11 -21 16 -106 21 -106 7 0 -4 5 -13 12 -20 19 -19 -22 -15 -43
4 -12 11 -25 14 -36 9 -18 -8 -28 -11 -50 -13 -7 -1 -13 -7 -13 -13 0 -14 -21
-34 -37 -35 -7 -1 -20 -2 -28 -2 -8 -1 -15 -11 -15 -22 0 -11 5 -19 12 -17 6
1 18 -10 25 -25 16 -32 21 -33 51 -12 17 12 22 12 22 2 0 -8 9 -14 20 -14 11
0 20 4 20 8 0 4 15 1 33 -7 17 -7 43 -16 57 -19 36 -8 46 -17 54 -49 6 -26 5
-27 -14 -17 -17 9 -22 7 -30 -12 -5 -13 -9 -17 -9 -10 -1 6 -6 12 -12 12 -6 0
-8 -8 -4 -19 5 -17 2 -19 -25 -14 -30 4 -31 3 -28 -29 2 -27 10 -36 39 -51 31
-15 38 -24 43 -58 10 -64 -2 -73 -52 -39 -24 16 -48 30 -54 32 -13 5 7 48 22
48 6 0 4 15 -4 34 -7 18 -12 46 -9 62 4 28 4 28 -12 9 -17 -20 -17 -20 -11 5
7 24 6 24 -8 6 -18 -22 -21 -52 -6 -61 6 -3 10 -14 10 -23 -1 -15 -3 -14 -16
3 -8 11 -20 19 -25 17 -5 -1 -9 4 -9 10 0 8 -7 5 -15 -6 -13 -17 -15 -18 -15
-3 0 20 -26 23 -33 5 -4 -10 -7 -10 -14 0 -9 12 -41 -46 -61 -112 -11 -41 -38
-49 -28 -10 l8 29 -26 -24 c-30 -29 -35 -20 -6 11 24 26 17 38 -8 15 -24 -22
-32 -21 -32 4 0 12 -4 17 -11 13 -8 -4 -9 1 -4 17 6 20 5 22 -6 12 -7 -7 -24
-13 -37 -13 -20 0 -22 3 -13 14 9 11 8 17 -8 29 -21 14 -21 14 4 25 14 6 25
16 25 22 0 5 6 10 14 10 8 0 17 7 20 16 11 28 6 37 -11 22 -10 -9 -35 -18 -56
-20 -37 -4 -37 -4 -18 16 11 10 30 20 43 21 13 1 22 8 21 14 -2 6 1 11 5 11 5
0 17 7 28 15 18 15 17 15 -16 14 -19 -1 -43 2 -53 6 -10 4 -23 2 -31 -4 -8 -7
-27 -14 -41 -17 -15 -3 -41 -12 -57 -20 -37 -19 -73 -15 -72 9 1 9 -5 17 -14
17 -12 0 -13 3 -4 12 9 9 17 6 37 -12 23 -22 27 -22 65 -10 23 7 45 21 50 29
6 10 10 11 10 4 0 -18 11 -16 40 8 l24 21 -23 18 -24 18 23 12 c18 10 20 14 9
21 -11 7 -10 9 4 9 10 0 17 8 17 19 0 11 4 23 10 26 5 3 18 26 29 50 19 43 55
66 80 51 5 -3 18 -3 30 2 11 4 87 6 168 4 136 -3 149 -5 164 -24z m386 -10
c-3 -8 -6 -5 -6 6 -1 11 2 17 5 13 3 -3 4 -12 1 -19z m-1097 -102 c0 -11 -19
-15 -25 -6 -3 5 1 10 9 10 9 0 16 -2 16 -4z m143 -79 c19 4 20 3 5 -6 -19 -13
-51 -4 -41 12 5 8 8 8 10 0 2 -6 14 -9 26 -6z m912 -17 c9 -16 13 -30 11 -30
-10 0 -36 32 -36 46 0 22 8 17 25 -16z m-14 -30 c26 -14 24 -32 -3 -28 -13 2
-24 11 -26 21 -4 20 2 21 29 7z m-96 -30 c3 -6 -1 -7 -9 -4 -18 7 -21 14 -7
14 6 0 13 -4 16 -10z m1 -20 c35 0 44 -4 44 -17 0 -13 -3 -14 -12 -5 -18 18
-32 14 -17 -5 12 -15 12 -16 -3 -10 -19 7 -34 -23 -23 -45 4 -7 -6 1 -20 17
l-27 30 6 -28 c4 -17 3 -26 -2 -23 -5 3 -12 17 -14 30 -4 20 0 26 21 31 23 6
24 8 8 16 -9 6 -17 15 -16 22 0 9 2 9 6 0 3 -8 23 -13 49 -13z m-105 -130 c5
0 9 5 9 10 0 6 3 10 8 10 4 0 7 -13 7 -30 0 -16 -3 -30 -7 -30 -5 0 -8 5 -8
10 0 6 -6 9 -12 8 -8 -2 -14 9 -15 27 -1 17 1 22 3 13 3 -10 10 -18 15 -18z
m-328 -35 c-3 -9 -8 -14 -10 -11 -3 3 -2 9 2 15 9 16 15 13 8 -4z m-396 -15
c-3 -11 -1 -20 4 -20 14 0 33 -43 33 -78 1 -26 8 -37 35 -55 l35 -21 -24 32
c-25 34 -19 60 7 27 11 -14 17 -16 20 -7 4 10 8 10 20 0 8 -7 24 -17 36 -23
25 -12 37 -41 13 -32 -9 4 -16 4 -16 1 0 -2 12 -9 28 -15 24 -9 25 -11 9 -20
-16 -10 -16 -12 5 -30 23 -19 23 -19 -27 0 -137 53 -205 94 -205 126 0 6 -11
22 -25 35 -29 27 -25 42 5 15 16 -14 20 -15 20 -4 0 8 -6 22 -12 30 -11 12
-11 12 2 2 7 -7 18 -13 23 -13 12 0 -2 53 -16 62 -7 5 -3 8 12 8 18 0 22 -4
18 -20z m807 13 c-5 -5 -12 -12 -16 -18 -4 -6 -8 -2 -8 8 0 9 7 17 17 17 9 0
12 -3 7 -7z"/>
<path d="M3440 2616 c0 -8 -13 -17 -30 -21 -16 -4 -30 -11 -30 -17 0 -6 -7 -8
-15 -4 -9 3 -15 0 -15 -8 0 -8 -10 -21 -22 -29 -23 -16 -23 -16 -2 -16 23 -1
115 62 133 91 9 14 8 18 -4 18 -8 0 -15 -6 -15 -14z"/>
<path d="M2592 1630 c-12 -12 -22 -26 -22 -32 0 -9 3 -9 12 0 17 17 29 15 22
-3 -4 -8 -1 -15 4 -15 15 0 25 37 15 55 -8 13 -12 13 -31 -5z"/>
<path d="M2175 3090 c-14 -23 8 -48 66 -75 57 -26 65 -27 122 -17 34 5 80 6
102 2 35 -6 32 -7 -26 -7 -36 -1 -77 -4 -90 -8 l-24 -8 25 -10 c23 -9 20 -11
-27 -18 -29 -4 -60 -9 -68 -13 -17 -6 -45 -64 -45 -91 0 -14 3 -14 25 1 14 9
38 18 53 20 14 1 28 8 30 14 2 5 11 18 20 27 15 15 17 14 27 -3 36 -64 90 -81
138 -44 32 25 32 25 33 -6 1 -14 5 -28 8 -31 8 -8 86 18 86 29 0 5 6 15 13 23
10 11 16 10 35 -8 l24 -22 -3 37 c-2 23 3 43 13 55 22 26 38 59 31 66 -3 4
-19 -3 -34 -14 l-28 -20 -129 36 c-71 19 -145 35 -164 35 -20 0 -41 7 -48 15
-7 8 -21 15 -31 15 -11 0 -19 4 -19 8 0 5 -21 10 -46 11 -26 0 -50 4 -54 6 -5
3 -11 1 -15 -5z"/>
<path d="M2713 2806 c-13 -6 -23 -18 -23 -26 0 -8 -9 -21 -20 -28 -25 -15 -16
-35 11 -27 15 5 19 1 19 -16 0 -37 20 -8 24 35 2 20 11 45 21 56 21 23 6 25
-32 6z"/>
<path d="M2125 2770 c-10 -11 -13 -20 -7 -20 7 0 13 -12 13 -27 2 -24 2 -25 6
-5 5 24 13 28 30 11 15 -15 33 -3 33 22 0 16 -6 19 -27 17 -18 -2 -27 1 -25
10 3 17 -2 15 -23 -8z"/>
<path d="M2557 2766 c-22 -33 -1 -54 25 -24 10 12 18 27 18 35 0 21 -26 15
-43 -11z"/>
<path d="M2143 1977 c-10 -13 -26 -26 -35 -30 -10 -3 -18 -11 -18 -16 0 -6 9
-7 22 -2 24 9 77 71 60 71 -6 0 -19 -10 -29 -23z"/>
<path d="M2194 1955 c-15 -20 -24 -38 -21 -41 6 -7 67 55 67 68 0 18 -21 6
-46 -27z"/>
<path d="M2128 1924 c-35 -18 -36 -37 -1 -53 34 -15 47 -3 36 37 -8 30 -9 30
-35 16z"/>
<path d="M2524 885 c-50 -22 -84 -56 -84 -83 0 -7 12 1 27 19 25 29 77 59 103
59 5 0 19 -9 30 -20 13 -13 20 -16 20 -7 0 8 -10 23 -22 34 l-23 21 -51 -23z"/>
</g>
</svg>
